<svg width="39" height="31" viewBox="0 0 39 31" fill="none" xmlns="http://www.w3.org/2000/svg">
<path d="M38.4065 23.72C38.4065 25.928 37.6865 27.704 36.2465 29.048C34.8065 30.296 32.9825 30.92 30.7745 30.92C28.1825 30.92 26.0225 30.056 24.2945 28.328C22.6625 26.6 21.8465 24.056 21.8465 20.696C21.8465 17.528 22.2785 14.84 23.1425 12.632C24.1025 10.328 25.2065 8.408 26.4545 6.87199C27.7985 5.24 29.1425 3.944 30.4865 2.98399C31.9265 2.02399 33.1745 1.35199 34.2305 0.967992L37.8305 6.008C35.7185 7.06399 33.9905 8.50399 32.6465 10.328C31.3985 12.056 30.7745 14.264 30.7745 16.952C31.1585 16.856 31.6865 16.808 32.3585 16.808C34.2785 16.808 35.7665 17.48 36.8225 18.824C37.8785 20.168 38.4065 21.8 38.4065 23.72ZM17.3825 23.72C17.3825 25.928 16.6625 27.704 15.2225 29.048C13.7825 30.296 11.9585 30.92 9.7505 30.92C7.1585 30.92 4.9985 30.056 3.2705 28.328C1.6385 26.6 0.8225 24.056 0.8225 20.696C0.8225 17.528 1.2545 14.84 2.1185 12.632C3.0785 10.328 4.1825 8.408 5.4305 6.87199C6.7745 5.24 8.1185 3.944 9.4625 2.98399C10.9025 2.02399 12.1505 1.35199 13.2065 0.967992L16.8065 6.008C14.6945 7.06399 12.9665 8.50399 11.6225 10.328C10.3745 12.056 9.7505 14.264 9.7505 16.952C10.1345 16.856 10.6625 16.808 11.3345 16.808C13.2545 16.808 14.7425 17.48 15.7985 18.824C16.8545 20.168 17.3825 21.8 17.3825 23.72Z" fill="#E94A37"/>
</svg>
