<svg width="32" height="23" viewBox="0 0 32 23" fill="none" xmlns="http://www.w3.org/2000/svg">
<g clip-path="url(#clip0)">
<path fill-rule="evenodd" clip-rule="evenodd" d="M12.696 15.5133L12.695 6.45849L21.341 11.0015L12.696 15.5133ZM31.68 4.88944C31.68 4.88944 31.367 2.6688 30.408 1.69091C29.191 0.406866 27.827 0.400823 27.202 0.326298C22.724 0 16.007 0 16.007 0H15.993C15.993 0 9.276 0 4.798 0.326298C4.172 0.400823 2.809 0.406866 1.591 1.69091C0.632 2.6688 0.32 4.88944 0.32 4.88944C0.32 4.88944 0 7.49782 0 10.1052V12.5504C0 15.1588 0.32 17.7661 0.32 17.7661C0.32 17.7661 0.632 19.9868 1.591 20.9647C2.809 22.2487 4.408 22.2084 5.12 22.3424C7.68 22.5901 16 22.6667 16 22.6667C16 22.6667 22.724 22.6566 27.202 22.3303C27.827 22.2548 29.191 22.2487 30.408 20.9647C31.367 19.9868 31.68 17.7661 31.68 17.7661C31.68 17.7661 32 15.1588 32 12.5504V10.1052C32 7.49782 31.68 4.88944 31.68 4.88944Z" fill="#CE1312"/>
</g>
<defs>
<clipPath id="clip0">
<rect width="32" height="22.6667" fill="white"/>
</clipPath>
</defs>
</svg>
