<svg xmlns="http://www.w3.org/2000/svg" width="895" height="179" viewBox="0 0 895 179" fill="none">
	<path d="M167.441 0H0V179H179V0H167.441ZM167.441 19.7329L103.453 83.7205H167.441V95.2795H103.453L167.441 159.267V167.441H159.267L95.2795 103.453V167.441H83.7205V103.453L19.7329 167.441H11.559V159.267L75.5466 95.2795H11.559V83.7205H75.5466L11.559 19.7329V11.559H19.7329L83.7205 75.5466V11.559H95.2795V75.5466L159.267 11.559H167.441V19.7329Z" fill="white"/>
	<path d="M807.222 140C805.926 140 805 139.079 805 137.789L806.111 75.5L805 13.2114C805 11.9214 805.926 11 807.222 11H830.742C832.038 11 832.964 11.9214 832.964 13.2114L832.038 74.9471V80.8443L859.817 46.3829C860.558 45.4614 861.484 45.0929 862.595 45.0929H887.781C889.633 45.0929 890.374 46.3829 889.077 47.8572L860.928 79.1857L894.633 137.42C895.559 139.079 894.633 140 892.966 140H865.743C864.632 140 863.706 139.447 863.15 138.341L853.52 120.097L841.668 99.0886L832.594 110.514L832.964 137.789C832.964 139.079 832.038 140 830.742 140H807.222Z" fill="white"/>
	<path d="M766.418 129.047C759.754 137.189 750.313 142 738.281 142C711.254 142 697 120.535 697 92.7776C697 65.2056 712.92 43 738.836 43C750.683 43 759.939 47.2561 766.418 55.028L766.048 47.071C766.048 45.5907 766.603 44.8505 768.084 44.8505H791.779C793.074 44.8505 794 45.7757 794 47.071L793.074 92.5925L794 137.929C794 139.224 793.074 140.15 791.779 140.15H768.269C766.973 140.15 766.048 139.224 766.048 137.929L766.418 129.047ZM725.323 91.2972C725.323 112.763 732.727 123.68 746.055 123.495C759.569 123.495 766.788 113.318 766.973 93.1477C767.158 72.7925 759.939 61.6897 746.611 61.5047C732.542 61.1346 725.323 71.6822 725.323 91.2972Z" fill="white"/>
	<path d="M642.684 143C611.085 143 594 122.113 594 93.2773C594 62.963 612.004 43 642.133 43C672.996 43 690.265 63.5176 691 96.4196C691 97.8983 690.081 98.6377 688.795 98.6377H621.741C622.843 116.567 629.824 124.516 643.051 124.516C652.237 124.516 658.85 120.449 661.422 110.468C661.606 109.174 662.525 108.434 663.811 108.434H685.856C687.326 108.434 688.244 108.989 688.061 110.098C685.856 127.473 669.322 143 642.684 143ZM622.475 81.0776H661.239C660.136 70.9113 654.441 61.2994 642.316 61.2994C631.11 61.2994 624.68 67.9538 622.475 81.0776Z" fill="white"/>
	<path d="M493.217 171C491.924 171 491 170.079 491 168.79L491.924 101.199L491 47.0518C491 45.7626 491.924 44.8417 493.217 44.8417H517.051C518.53 44.8417 519.084 45.5784 519.084 47.0518L518.714 55.8921C525.366 47.7885 534.789 43 546.798 43C573.773 43 588 64.364 588 91.9899C588 119.432 572.11 141.532 546.244 141.532C534.789 141.532 525.55 137.481 519.269 129.929L519.638 168.79C519.638 170.079 518.714 171 517.421 171H493.217ZM518.16 91.6216C517.975 111.696 525.181 122.931 538.484 122.931C552.526 122.931 559.731 112.801 559.731 93.4633C559.731 72.4676 552.526 61.7856 539.038 61.7856C525.55 61.7856 518.345 71.9151 518.16 91.6216Z" fill="white"/>
	<path d="M463.858 143C447.69 143 432.265 134.859 432.265 113.213L432.451 65.4786H422.23C420.929 65.4786 420 64.5535 420 63.2584V48.0872C420 46.792 420.929 45.867 422.23 45.867H432.265L432.08 24.2202C432.08 22.9251 433.009 22 434.31 22H458.283C459.584 22 460.513 22.9251 460.513 24.2202L460.142 45.867H480.77C482.071 45.867 483 46.792 483 48.0872V63.2584C483 64.5535 482.071 65.4786 480.77 65.4786H459.956L460.142 112.472C460.142 120.613 464.23 123.203 470.363 123.203C474.451 123.203 477.611 122.648 480.398 121.908C481.885 121.538 482.814 122.278 482.814 123.758V137.45C482.814 138.745 482.257 139.485 481.142 139.855C475.752 141.705 469.805 143 463.858 143Z" fill="white"/>
	<path d="M371.684 143C340.085 143 323 122.113 323 93.2773C323 62.963 341.004 43 371.133 43C401.996 43 419.265 63.5176 420 96.4196C420 97.8983 419.081 98.6377 417.795 98.6377H350.741C351.843 116.567 358.824 124.516 372.051 124.516C381.237 124.516 387.85 120.449 390.422 110.468C390.606 109.174 391.525 108.434 392.811 108.434H414.856C416.326 108.434 417.244 108.989 417.061 110.098C414.856 127.473 398.322 143 371.684 143ZM351.475 81.0776H390.239C389.136 70.9113 383.441 61.2994 371.316 61.2994C360.11 61.2994 353.68 67.9538 351.475 81.0776Z" fill="white"/>
	<path d="M226.22 140C224.925 140 224 139.08 224 137.791L224.925 94.537L224.37 47.4175C224.37 46.129 225.295 45.2087 226.589 45.2087H248.97C250.449 45.2087 251.004 45.945 251.004 47.4175L250.634 57.1727C257.108 48.8899 268.02 43 281.337 43C301.498 43 314.26 56.6205 314.26 79.8121V99.6907L315 137.791C315 139.08 314.075 140 312.78 140H289.106C287.811 140 286.886 139.08 286.886 137.791L287.441 99.6907V80.1803C287.441 69.8729 281.152 63.2467 272.829 63.2467C262.841 63.2467 252.114 72.4497 252.114 92.6964V99.6907L252.484 137.791C252.484 139.08 251.559 140 250.264 140H226.22Z" fill="white"/>
</svg>
